HIERARCHY
ROOT root
{
	OFFSET 0.000000 0.000000 0.000000
	CHANNELS 6 Xposition Yposition Zposition Zrotation Yrotation Xrotation
	JOINT lhip
	{
		OFFSET 0.058581 -0.082280 -0.017664
		CHANNELS 3 Zrotation Yrotation Xrotation
		JOINT lknee
		{
			OFFSET 0.043451 -0.386469 0.008037
			CHANNELS 3 Zrotation Yrotation Xrotation
			JOINT lankle
			{
				OFFSET -0.014790 -0.426874 -0.037428
				CHANNELS 3 Zrotation Yrotation Xrotation
				JOINT ltoe
				{
					OFFSET 0.041054 -0.060286 0.122042
					CHANNELS 3 Zrotation Yrotation Xrotation
					End Site
					{
						OFFSET 0.000000 0.000000 0.000000
					}
				}
			}
		}
	}
	JOINT rhip
	{
		OFFSET -0.060310 -0.090513 -0.013543
		CHANNELS 3 Zrotation Yrotation Xrotation
		JOINT rknee
		{
			OFFSET -0.043257 -0.383688 -0.004843
			CHANNELS 3 Zrotation Yrotation Xrotation
			JOINT rankle
			{
				OFFSET 0.019056 -0.420046 -0.034562
				CHANNELS 3 Zrotation Yrotation Xrotation
				JOINT rtoe
				{
					OFFSET -0.034840 -0.062106 0.130323
					CHANNELS 3 Zrotation Yrotation Xrotation
					End Site
					{
						OFFSET 0.000000 0.000000 0.000000
					}
				}
			}
		}
	}
	JOINT lowerback
	{
		OFFSET 0.004439 0.124404 -0.038385
		CHANNELS 3 Zrotation Yrotation Xrotation
		JOINT upperback
		{
			OFFSET 0.004488 0.137956 0.026820
			CHANNELS 3 Zrotation Yrotation Xrotation
			JOINT chest
			{
				OFFSET -0.002265 0.056032 0.002855
				CHANNELS 3 Zrotation Yrotation Xrotation
				JOINT lowerneck
				{
					OFFSET -0.013390 0.211636 -0.033468
					CHANNELS 3 Zrotation Yrotation Xrotation
					JOINT upperneck
					{
						OFFSET 0.010113 0.088937 0.050410
						CHANNELS 3 Zrotation Yrotation Xrotation
						End Site
						{
							OFFSET 0.000000 0.000000 0.000000
						}
					}
				}
				JOINT lclavicle
				{
					OFFSET 0.071702 0.114000 -0.018898
					CHANNELS 3 Zrotation Yrotation Xrotation
					JOINT lshoulder
					{
						OFFSET 0.122921 0.045205 -0.019046
						CHANNELS 3 Zrotation Yrotation Xrotation
						JOINT lelbow
						{
							OFFSET 0.255332 -0.015649 -0.022946
							CHANNELS 3 Zrotation Yrotation Xrotation
							JOINT lwrist
							{
								OFFSET 0.265709 0.012698 -0.007375
								CHANNELS 3 Zrotation Yrotation Xrotation
								End Site
								{
									OFFSET 0.000000 0.000000 0.000000
								}
							}
						}
					}
				}
				JOINT rclavicle
				{
					OFFSET -0.082954 0.112472 -0.023707
					CHANNELS 3 Zrotation Yrotation Xrotation
					JOINT rshoulder
					{
						OFFSET -0.113228 0.046853 -0.008472
						CHANNELS 3 Zrotation Yrotation Xrotation
						JOINT relbow
						{
							OFFSET -0.260127 -0.014369 -0.031269
							CHANNELS 3 Zrotation Yrotation Xrotation
							JOINT rwrist
							{
								OFFSET -0.269108 0.006794 -0.006027
								CHANNELS 3 Zrotation Yrotation Xrotation
								End Site
								{
									OFFSET 0.000000 0.000000 0.000000
								}
							}
						}
					}
				}
			}
		}
	}
}
MOTION
Frames: 5
Frame Time: 0.033333
0.626607 0.136412 1.189492 92.174053 0.173838 84.512229 -1.494105 0.029023 4.523050 -2.714953 -9.276260 9.747667 3.661669 8.733078 -13.193458 0.000000 -0.000000 0.000000 3.732015 -1.629186 1.216468 1.035029 -0.577074 15.498968 1.348766 -6.897947 -14.394747 0.000000 -0.000000 0.000000 -0.113919 -0.693884 8.546217 1.977797 -1.971345 -2.279117 -0.332317 -1.633936 2.666923 3.173998 -0.374097 5.968376 -2.512633 -4.109816 16.604589 -26.270550 7.725152 2.872299 -56.961509 -5.507623 8.933463 9.237180 -28.860166 6.940506 -4.974054 -4.463058 -5.717920 27.643903 -0.835286 1.528472 57.972717 5.591523 14.629404 -12.605460 22.389377 -2.824313 5.688517 3.895045 -5.733367 
0.629375 0.134298 1.187757 92.160918 0.332582 84.144123 -1.572394 -0.802342 2.853255 -3.049890 -8.967639 13.993015 3.803018 9.569661 -14.467629 0.000000 -0.000000 0.000000 3.989483 -1.708177 1.615266 1.203386 -0.247701 16.035710 1.216735 -6.865587 -14.880602 0.000000 -0.000000 0.000000 0.225158 -0.414474 8.751886 1.892094 -1.948865 -1.962612 -0.353063 -1.585950 2.994490 3.019404 1.019511 6.754003 -2.350062 -2.308365 16.899840 -26.050821 7.578669 3.106512 -57.206575 -5.417055 8.719594 9.509649 -29.234327 6.748083 -4.831945 -4.091636 -6.170647 27.493042 -0.861491 1.901712 58.270438 5.545856 14.587450 -12.767679 22.808454 -2.762529 5.667199 3.589363 -6.323684 
0.632226 0.132128 1.186356 92.283491 0.595122 83.375605 -1.595406 -1.194663 0.926673 -3.162887 -8.216033 19.614328 3.542517 9.777825 -14.943525 0.000000 -0.000000 0.000000 4.222531 -2.302663 2.286197 1.484100 -0.577594 17.023848 1.033567 -6.671609 -15.182333 0.000000 -0.000000 0.000000 0.666388 -0.017426 9.917897 1.838832 -1.904091 -1.953022 -0.301613 -1.497346 3.315909 2.778020 1.858271 6.855508 -2.278851 -1.046832 17.284170 -26.244610 7.441108 3.003867 -56.970417 -5.269142 8.405138 9.627183 -30.079738 6.784144 -4.927877 -3.870358 -5.812063 27.449700 -1.098862 1.859908 58.273986 5.278329 14.364308 -12.530872 23.392961 -2.533904 5.718494 4.038589 -6.052918 
0.637196 0.128566 1.184471 92.867015 0.566808 82.468237 -1.679486 -2.235463 -3.070700 -4.165238 -6.907556 29.217977 2.377789 9.390239 -12.956366 0.000000 -0.000000 0.000000 4.465571 -2.737411 3.645949 1.294471 -0.089543 16.746583 0.225276 -6.638497 -15.737753 0.000000 -0.000000 0.000000 0.492159 0.713446 10.837245 1.992885 -2.232212 -1.690554 -0.272610 -1.539673 4.056635 2.401220 2.186662 7.174361 -1.973089 -0.553831 17.321534 -26.505720 7.278828 2.778917 -56.485890 -5.547051 8.409516 9.549385 -30.248688 6.649564 -4.628549 -4.370322 -6.690829 27.966702 -0.850534 1.871635 57.961193 5.283761 14.580225 -12.114647 22.981278 -2.249663 5.379735 3.905289 -6.678298 
0.641113 0.126588 1.184357 92.988528 0.655777 81.564640 -1.321582 -2.730925 -5.767831 -5.009732 -5.740356 35.848472 1.304377 8.547437 -9.711452 0.000000 -0.000000 0.000000 4.655558 -3.278632 4.978983 1.208001 -0.105911 16.519043 -0.410723 -6.529761 -15.529004 0.000000 -0.000000 0.000000 0.600164 1.286230 11.660104 2.055087 -2.398629 -1.240790 -0.208300 -1.412932 4.299332 2.122070 1.961199 7.489598 -1.707223 -0.359164 16.853756 -26.576465 7.022184 2.725162 -56.494197 -5.589364 8.206385 9.891591 -30.580284 6.520680 -5.102246 -4.018845 -6.518384 27.945390 -0.612511 2.126749 58.014235 5.283489 14.264008 -12.152592 22.855918 -2.137416 5.659799 3.918677 -6.373390 
